<svg width="88" height="98" viewBox="0 0 88 98" fill="none" xmlns="http://www.w3.org/2000/svg">
	<style type="text/css">
		.outer {
			fill: #101010;
		}
		.mid {
			fill: #ffffff;
		}
		.inner {
			fill: #101010;
		}

		@media (prefers-color-scheme: dark) {
			.outer,
			.inner {
				fill: #ffffff;
			}
			.mid {
				fill: #000000;
			}
		}
	</style>
	<path
		class="outer"
		d="M39 1.88674C42.094 0.100415 45.906 0.100415 49 1.88674L82.3013 21.1132C85.3953 22.8996 87.3013 26.2008 87.3013 29.7735V68.2265C87.3013 71.7991 85.3953 75.1004 82.3013 76.8867L49 96.1132C45.906 97.8996 42.094 97.8996 39 96.1132L5.69873 76.8867C2.60472 75.1004 0.69873 71.7991 0.69873 68.2265V29.7735C0.69873 26.2008 2.60472 22.8996 5.69873 21.1132L39 1.88674Z"
	/>
	<path
		class="mid"
		d="M29.5564 28.4986C30.4497 26.9524 32.0999 26 33.8857 26H54.1143C55.9001 26 57.5503 26.9524 58.4436 28.4986L68.5548 45.9986C69.449 47.5463 69.449 49.4537 68.5548 51.0014L58.4436 68.5014C57.5503 70.0476 55.9001 71 54.1143 71H33.8857C32.0999 71 30.4497 70.0476 29.5564 68.5014L19.4452 51.0014C18.551 49.4537 18.551 47.5463 19.4452 45.9986L29.5564 28.4986Z"
	/>
	<path
		class="inner"
		d="M54 49C54 54.5228 49.5228 59 44 59C38.4772 59 34 54.5228 34 49C34 43.4771 38.4772 39 44 39C49.5228 39 54 43.4771 54 49Z"
	/>
</svg>
